<svg version="1.1" id="Layer_1" xmlns="http://www.w3.org/2000/svg" xmlns:xlink="http://www.w3.org/1999/xlink" x="0px" y="0px"
	 width="100%" viewBox="0 0 1024 1024" enable-background="new 0 0 1024 1024" xml:space="preserve">
<path fill="none" opacity="1.000000" stroke="#000000" stroke-linecap="round" stroke-linejoin="round" stroke-width="6.000000"
	d="
M650.500000,421.000000 
	C653.833313,423.178040 657.158264,420.825073 660.502258,420.902466 
	C664.194946,420.987946 667.099365,421.658112 668.518982,425.492981 
	C669.822632,429.014374 668.741638,431.696167 666.006165,434.007324 
	C653.923767,444.215546 641.506958,453.966461 628.555359,463.078735 
	C618.231262,470.342407 607.670593,477.297699 596.406311,482.808533 
	C583.476868,489.133972 569.819885,493.967773 556.505920,499.514191 
	C550.304565,502.097626 544.281250,505.152557 537.970520,507.417847 
	C530.381714,510.141876 522.655396,510.422089 514.471863,509.186432 
	C495.363342,506.301178 477.342285,499.265533 458.497375,495.513214 
	C447.593414,493.342072 436.746002,490.792175 425.499634,490.976807 
	C413.311676,491.176941 402.376953,495.029327 392.516907,502.023834 
	C387.397339,505.655487 382.827942,509.948822 378.481262,514.482056 
	C377.118469,515.903381 375.959930,517.822144 373.500000,517.500000 
"/>
<path fill="none" opacity="1.000000" stroke="#000000" stroke-linecap="round" stroke-linejoin="round" stroke-width="12.000000"
	d="
M555.000000,661.000000 
	C557.863831,665.672058 561.650940,667.703979 567.500305,667.694580 
	C577.163452,667.679138 586.894287,667.648926 596.513550,669.426758 
	C601.571899,670.361633 605.648621,672.245300 606.942688,677.514099 
	C608.426758,683.556580 607.439636,689.174316 602.490051,693.488586 
	C592.930420,701.820862 581.583130,703.381470 569.500366,701.996704 
	C564.769714,701.454529 560.242432,700.669373 555.943726,698.093872 
	C546.652344,692.527222 547.771851,682.786682 553.965515,676.466248 
	C556.455505,673.925232 559.675354,671.859558 560.500000,668.000000 
"/>
<path fill="none" opacity="1.000000" stroke="#000000" stroke-linecap="round" stroke-linejoin="round" stroke-width="7.000000"
	d="
M343.500000,459.500000 
	C343.347931,458.472504 343.622833,457.668762 344.491028,456.988556 
	C360.345764,444.567444 375.445282,431.099945 393.022034,421.038483 
	C409.250793,411.748596 426.845612,407.483154 445.491058,409.102997 
	C461.476471,410.491791 476.249634,416.572754 491.008484,422.478821 
	C503.641968,427.534332 516.087830,433.008728 529.462769,436.158051 
	C537.824036,438.126801 546.135071,437.653015 554.497681,438.049469 
	C563.812439,438.491058 573.208618,439.544830 581.874390,442.831238 
	C585.080750,444.047211 588.766663,448.149017 588.794617,452.501312 
	C588.817200,456.013794 585.851807,458.262726 582.567078,460.118713 
	C577.340515,463.071930 571.620483,463.997498 565.981323,464.880951 
	C555.415405,466.536224 544.737305,467.197693 533.999146,467.070618 
	C525.356628,466.968323 516.982361,465.011230 508.525085,463.821716 
	C497.787292,462.311462 487.209503,461.042908 476.495758,463.481323 
	C475.861938,463.625580 475.166656,463.500000 474.500000,463.500000 
"/>
<path fill="none" opacity="1.000000" stroke="#000000" stroke-linecap="round" stroke-linejoin="round" stroke-width="6.000000"
	d="
M518.500000,612.000000 
	C515.502258,612.226074 512.786743,611.503479 510.503601,609.495911 
	C496.743195,597.396851 474.483612,603.747131 467.479828,619.991333 
	C462.469299,631.612427 461.931335,643.365845 468.124847,654.430115 
	C476.647125,669.654541 493.994232,672.234619 507.945862,663.909302 
	C511.481079,661.799683 514.748718,659.829346 519.000000,660.500000 
"/>
<path fill="none" opacity="1.000000" stroke="#000000" stroke-linecap="round" stroke-linejoin="round" stroke-width="6.000000"
	d="
M341.500000,632.000000 
	C328.648529,632.580627 316.583282,635.815674 305.490814,642.484741 
	C299.259949,646.230896 298.232605,652.278137 299.156403,658.476685 
	C300.049438,664.468933 305.078369,666.976196 310.498322,668.505981 
	C318.460693,670.753357 325.493103,668.587158 331.991211,663.987610 
	C334.907715,661.923279 337.630676,659.516602 341.500000,659.500000 
"/>
<path fill="none" opacity="1.000000" stroke="#000000" stroke-linecap="round" stroke-linejoin="round" stroke-width="7.000000"
	d="
M467.000000,337.000000 
	C473.822906,341.154419 480.981018,344.452606 489.000916,345.493011 
	C493.162384,346.032837 497.326965,346.854340 501.501282,346.929321 
	C511.507172,347.109100 521.547729,347.483978 531.496277,345.975494 
	C539.786865,344.718384 547.720642,342.234467 554.974548,337.956818 
	C557.586853,336.416321 556.703430,333.844666 555.430908,332.048981 
	C552.561096,327.999329 548.035645,326.308960 543.488464,325.041351 
	C533.364075,322.219116 522.980774,321.591248 512.501404,321.416382 
	C503.767120,321.270630 495.102356,321.813263 486.513275,323.089325 
	C480.085938,324.044220 473.677124,325.503296 468.484497,329.981995 
	C466.216187,331.938446 464.701233,333.962250 466.500000,337.000000 
"/>
<path fill="none" opacity="1.000000" stroke="#000000" stroke-linecap="round" stroke-linejoin="round" stroke-width="15.000000"
	d="
M636.250000,569.500000 
	C635.856934,572.454773 633.961365,574.497375 632.032471,576.486267 
	C633.573730,580.521545 634.026978,584.703735 634.019287,589.000061 
	C633.978333,611.833252 634.000000,634.666687 634.000000,657.500000 
	C634.000000,664.621765 632.298401,666.981689 625.491760,668.971863 
	C623.713074,669.491882 621.833313,669.666687 620.000000,670.000000 
"/>
<path fill="none" opacity="1.000000" stroke="#000000" stroke-linecap="round" stroke-linejoin="round" stroke-width="14.000000"
	d="
M577.000000,603.000000 
	C582.545288,602.602051 587.457581,605.104797 591.322388,608.220337 
	C595.316772,611.440308 597.447998,616.672852 598.227051,622.003357 
	C599.936707,633.701050 595.903076,644.809387 582.970947,647.877625 
	C564.953674,652.152405 554.167114,638.600586 555.086731,623.505310 
	C555.527100,616.275940 558.196411,610.007324 564.941833,605.904419 
	C568.635803,603.657593 572.360535,602.826538 576.500000,603.000000 
"/>
<path fill="none" opacity="1.000000" stroke="#000000" stroke-linecap="round" stroke-linejoin="round" stroke-width="6.000000"
	d="
M490.000000,738.250000 
	C487.387848,739.081604 484.569244,737.710754 481.750000,739.337708 
	C481.750000,747.000000 481.750000,755.000000 481.750000,763.234497 
	C487.336731,763.221008 492.598236,764.752625 497.610809,760.634888 
	C501.752991,757.232178 503.293243,753.016907 502.290192,748.547058 
	C501.153778,743.482666 498.503876,738.663086 491.999695,738.512817 
	C490.541809,738.479065 490.315460,737.680054 490.500000,736.500000 
"/>
<path fill="none" opacity="1.000000" stroke="#000000" stroke-linecap="round" stroke-linejoin="round" stroke-width="7.000000"
	d="
M466.500000,337.500000 
	C464.661530,339.357788 465.002319,341.721375 465.001953,344.000000 
	C464.998627,364.500000 465.014893,385.000031 464.978088,405.499969 
	C464.974213,407.666901 464.666656,409.833344 464.500000,412.000000 
"/>
<path fill="none" opacity="1.000000" stroke="#000000" stroke-linecap="round" stroke-linejoin="round" stroke-width="7.000000"
	d="
M555.500000,338.500000 
	C557.338440,340.357788 556.997620,342.721375 556.997986,345.000000 
	C557.001465,364.166656 556.585693,383.346832 557.209534,402.493164 
	C557.449829,409.868378 556.479858,417.163269 556.980652,424.501312 
	C557.264587,428.660675 558.800476,432.833344 557.000000,437.000000 
"/>
<path fill="none" opacity="1.000000" stroke="#000000" stroke-linecap="round" stroke-linejoin="round" stroke-width="6.000000"
	d="
M724.000000,763.500000 
	C731.260925,763.424744 736.367676,758.522278 736.500000,751.500000 
	C736.639771,744.079468 730.765320,737.500000 724.000000,737.500000 
	C717.733215,737.500000 711.625305,743.852234 711.500061,750.500000 
	C711.371826,757.305298 716.859680,763.250549 723.500000,763.500000 
"/>
<path fill="none" opacity="1.000000" stroke="#000000" stroke-linecap="round" stroke-linejoin="round" stroke-width="6.000000"
	d="
M661.500000,739.500000 
	C659.462463,739.392029 657.581909,739.778076 655.428162,738.635315 
	C650.778015,736.167786 646.287598,737.354492 642.501648,741.001709 
	C638.193542,745.152039 636.865967,750.871216 639.000061,756.000000 
	C641.115845,761.084778 644.807373,763.492798 650.500000,763.499634 
	C652.166687,763.501648 653.940552,763.873291 655.480164,763.430908 
	C660.339966,762.034546 661.357666,759.228516 660.007446,752.039551 
	C657.551208,751.064758 655.000122,751.664917 652.500000,751.500000 
"/>
<path fill="none" opacity="1.000000" stroke="#000000" stroke-linecap="round" stroke-linejoin="round" stroke-width="12.000000"
	d="
M771.000000,670.000000 
	C772.086243,662.942200 768.466431,657.099060 765.964966,651.014404 
	C761.421936,639.963623 756.667236,628.999756 751.997314,618.001160 
	C751.851990,617.658813 751.547852,617.343872 751.517212,616.998474 
	C750.516907,605.715515 741.444519,605.640869 733.500000,604.000000 
"/>
<path fill="none" opacity="1.000000" stroke="#000000" stroke-linecap="round" stroke-linejoin="round" stroke-width="14.000000"
	d="
M384.500000,616.000000 
	C388.650177,616.017090 391.987610,615.284668 395.169403,611.648254 
	C401.150726,604.812317 419.043030,601.227783 427.990784,612.507324 
	C431.346375,616.737366 432.243896,621.860840 432.440765,627.002258 
	C432.899933,638.993713 431.917633,651.013000 433.005341,662.999512 
	C433.112885,664.184570 432.888214,665.092163 431.500000,665.250000 
"/>
<path fill="none" opacity="1.000000" stroke="#000000" stroke-linecap="round" stroke-linejoin="round" stroke-width="7.000000"
	d="
M263.000000,621.000000 
	C241.666672,621.000000 220.333328,621.000000 199.000000,621.000000 
"/>
<path fill="none" opacity="1.000000" stroke="#000000" stroke-linecap="round" stroke-linejoin="round" stroke-width="13.000000"
	d="
M812.250000,671.000000 
	C813.747131,662.067566 809.495605,654.557983 805.908508,647.043701 
	C801.926697,638.702637 799.741760,629.552673 794.197021,621.858032 
	C793.105652,620.343628 792.609863,617.285034 792.622131,615.000671 
	C792.649780,609.898865 789.248047,608.125854 785.490417,606.522522 
	C782.873474,605.405884 780.166687,604.500000 777.500000,603.500000 
"/>
<path fill="none" opacity="1.000000" stroke="#000000" stroke-linecap="round" stroke-linejoin="round" stroke-width="14.000000"
	d="
M359.500000,665.500000 
	C356.889435,668.640259 353.162659,669.606934 349.509155,669.362915 
	C345.175720,669.073547 342.071381,663.209167 342.191742,657.998657 
	C342.461212,646.336243 342.741058,634.657349 342.404541,623.002747 
	C342.096741,612.344971 336.511200,605.816711 326.500000,603.000000 
	C319.340881,600.985718 307.961578,606.309143 303.002625,614.001709 
	C302.150787,615.323059 301.333344,616.666687 300.500000,618.000000 
"/>
<path fill="none" opacity="1.000000" stroke="#000000" stroke-linecap="round" stroke-linejoin="round" stroke-width="6.000000"
	d="
M622.500000,412.000000 
	C624.802307,413.480560 626.877686,411.877380 628.425415,410.883820 
	C632.633972,408.182281 637.441223,407.123322 642.039551,406.196045 
	C649.101868,404.771881 654.103027,407.982391 651.227539,416.576141 
	C649.978821,420.308014 648.277405,422.311310 645.034973,424.064667 
	C631.429199,431.422058 619.159912,441.085114 604.987915,447.473236 
	C600.026550,449.709564 595.108459,452.202972 589.500000,452.500000 
"/>
<path fill="none" opacity="1.000000" stroke="#000000" stroke-linecap="round" stroke-linejoin="round" stroke-width="6.000000"
	d="
M835.500000,607.500000 
	C835.605530,613.537048 832.300232,618.564331 830.394104,623.962585 
	C827.109802,633.264282 823.067871,642.295654 819.549744,651.518982 
	C818.186523,655.092468 816.108032,657.689697 812.500000,659.000000 
"/>
<path fill="none" opacity="1.000000" stroke="#000000" stroke-linecap="round" stroke-linejoin="round" stroke-width="15.000000"
	d="
M524.500000,566.500000 
	C524.500000,566.666687 524.572632,566.899841 524.489624,566.990479 
	C519.166321,572.804871 519.660522,579.766663 519.838989,587.003967 
	C520.043945,595.313965 519.090210,603.821533 519.439880,611.981140 
	C520.048035,626.171936 519.370361,640.341736 520.045959,654.497803 
	C520.189148,657.496643 518.872375,660.518372 520.424194,663.538940 
	C520.953430,664.569153 519.655640,665.550659 519.046814,666.529114 
	C517.825745,668.491272 515.476807,669.805908 515.500000,672.500000 
"/>
<path fill="none" opacity="1.000000" stroke="#000000" stroke-linecap="round" stroke-linejoin="round" stroke-width="15.000000"
	d="
M387.999969,604.000000 
	C386.999969,605.500000 386.200134,607.198975 384.953156,608.453491 
	C383.073669,610.344360 382.634308,611.965881 383.856476,614.567444 
	C384.626190,616.205811 384.000000,618.500000 384.000000,620.500000 
	C384.000000,635.166687 384.000000,649.833313 384.000000,664.500000 
"/>
<path fill="none" opacity="1.000000" stroke="#000000" stroke-linecap="round" stroke-linejoin="round" stroke-width="6.000000"
	d="
M298.500000,753.000000 
	C301.323120,753.340271 304.143219,752.846985 307.018494,753.404663 
	C310.793915,754.136841 315.376709,749.850037 315.500000,746.000000 
	C315.671631,740.639465 313.564728,738.454407 308.000397,738.529724 
	C304.666901,738.574890 301.292694,738.020630 297.500000,739.146729 
	C297.500000,747.160217 297.500000,755.330078 297.500000,763.500000 
"/>
<path fill="none" opacity="1.000000" stroke="#000000" stroke-linecap="round" stroke-linejoin="round" stroke-width="6.000000"
	d="
M277.500000,743.500000 
	C277.954254,740.960754 276.561188,739.433899 274.487000,738.529846 
	C271.202454,737.098083 267.591095,736.728943 264.545349,738.574829 
	C255.383789,744.127380 254.672958,756.446045 263.606293,762.338867 
	C267.807007,765.109802 272.982117,763.916382 277.500000,761.500000 
"/>
<path fill="none" opacity="1.000000" stroke="#000000" stroke-linecap="round" stroke-linejoin="round" stroke-width="7.000000"
	d="
M583.000000,442.500000 
	C587.806580,436.298920 594.974365,433.120392 601.064392,428.586517 
	C607.270813,423.966034 613.661499,419.600647 619.501038,414.501190 
	C621.274231,412.952728 623.093628,405.270691 622.547913,402.988556 
	C621.722656,399.537384 618.990906,399.375671 616.505798,399.573212 
	C608.637634,400.198761 601.793701,403.913055 595.058228,407.606140 
	C593.054321,408.704865 591.338562,409.849060 589.000000,409.500000 
"/>
<path fill="none" opacity="1.000000" stroke="#000000" stroke-linecap="round" stroke-linejoin="round" stroke-width="17.000000"
	d="
M198.000000,581.500000 
	C198.000000,608.833313 198.000000,636.166687 198.000000,663.500000 
"/>
<path fill="none" opacity="1.000000" stroke="#000000" stroke-linecap="round" stroke-linejoin="round" stroke-width="17.000000"
	d="
M264.000000,581.500000 
	C264.000000,606.500000 264.000000,631.500000 264.000000,656.500000 
	C264.000000,664.805603 265.702515,666.983521 274.006287,668.973694 
	C276.130798,669.482910 278.333344,669.666626 280.500000,669.999939 
"/>
<path fill="none" opacity="1.000000" stroke="#000000" stroke-linecap="round" stroke-linejoin="round" stroke-width="6.000000"
	d="
M792.000000,624.000000 
	C789.229248,625.317383 787.978333,627.698425 786.949463,630.481323 
	C784.095154,638.201843 781.059021,645.857178 777.971680,653.488525 
	C776.685303,656.668335 774.534668,659.127075 771.000000,660.000000 
"/>
<path fill="none" opacity="1.000000" stroke="#000000" stroke-linecap="round" stroke-linejoin="round" stroke-width="6.000000"
	d="
M680.500000,738.500000 
	C680.500000,746.670044 680.500000,754.840149 680.500000,763.500000 
	C685.830933,763.500000 690.665466,763.500000 695.500000,763.500000 
"/>
<path fill="none" opacity="1.000000" stroke="#000000" stroke-linecap="round" stroke-linejoin="round" stroke-width="7.000000"
	d="
M558.500000,431.000000 
	C569.153870,425.968170 578.714600,419.256470 587.413879,411.404602 
	C590.055420,409.020386 588.485657,405.218262 587.318176,402.580475 
	C586.184570,400.019104 583.761780,400.088409 580.443298,400.684326 
	C572.393860,402.129852 565.975281,406.542725 559.000000,410.000000 
"/>
<path fill="none" opacity="1.000000" stroke="#000000" stroke-linecap="round" stroke-linejoin="round" stroke-width="6.000000"
	d="
M392.500000,738.500000 
	C387.250000,738.500000 382.000000,738.500000 376.500000,738.500000 
	C376.500000,746.831665 376.500000,755.165833 376.500000,763.500000 
"/>
<path fill="none" opacity="1.000000" stroke="#000000" stroke-linecap="round" stroke-linejoin="round" stroke-width="6.000000"
	d="
M462.500000,738.500000 
	C456.998779,738.500000 451.497559,738.500000 446.000000,738.500000 
	C446.000000,747.000000 446.000000,755.000000 446.000000,763.500000 
	C451.497559,763.500000 456.998779,763.500000 462.500000,763.500000 
"/>
<path fill="none" opacity="1.000000" stroke="#000000" stroke-linecap="round" stroke-linejoin="round" stroke-width="6.000000"
	d="
M511.250000,293.000000 
	C511.662628,307.333344 511.665527,321.666656 511.250000,336.000000 
"/>
<path fill="none" opacity="1.000000" stroke="#000000" stroke-linecap="round" stroke-linejoin="round" stroke-width="6.000000"
	d="
M418.500000,740.000000 
	C418.500000,747.833313 418.500000,755.666687 418.500000,763.500000 
"/>
<path fill="none" opacity="1.000000" stroke="#000000" stroke-linecap="round" stroke-linejoin="round" stroke-width="5.000000"
	d="
M789.500061,738.750000 
	C787.666687,744.333374 785.966187,749.965881 783.925781,755.472473 
	C783.240723,757.321533 782.727661,759.575989 780.500000,760.500000 
"/>
<path fill="none" opacity="1.000000" stroke="#000000" stroke-linecap="round" stroke-linejoin="round" stroke-width="7.000000"
	d="
M549.500000,740.000000 
	C550.385315,747.651062 549.862793,755.332703 550.000000,763.000000 
"/>
<path fill="none" opacity="1.000000" stroke="#000000" stroke-linecap="round" stroke-linejoin="round" stroke-width="6.000000"
	d="
M753.499939,738.750000 
	C755.166626,743.833374 756.928284,748.888550 758.447632,754.015503 
	C758.968872,755.774170 759.672546,757.286194 761.005798,758.493591 
	C762.421509,759.775818 762.242737,761.372009 762.000000,763.000000 
"/>
<path fill="none" opacity="1.000000" stroke="#000000" stroke-linecap="round" stroke-linejoin="round" stroke-width="7.000000"
	d="
M611.500000,601.500000 
	C610.286499,605.739624 607.556641,606.849976 603.494446,605.516968 
	C599.686157,604.267334 596.299622,605.031860 593.500000,608.000000 
"/>
<path fill="none" opacity="1.000000" stroke="#000000" stroke-linecap="round" stroke-linejoin="round" stroke-width="6.000000"
	d="
M772.000000,742.500000 
	C774.177185,744.328064 774.723755,746.935730 775.543335,749.486084 
	C777.058533,754.201416 778.833313,758.833374 780.500000,763.500000 
"/>
<path fill="none" opacity="1.000000" stroke="#000000" stroke-linecap="round" stroke-linejoin="round" stroke-width="5.000000"
	d="
M770.000000,735.500000 
	C771.903809,738.615051 772.135193,741.533569 769.540833,744.535278 
	C767.499451,746.897034 767.447266,750.147583 766.455505,752.984436 
	C765.567261,755.525146 764.644592,758.130249 762.500000,760.000000 
"/>
<path fill="none" opacity="1.000000" stroke="#000000" stroke-linecap="round" stroke-linejoin="round" stroke-width="6.000000"
	d="
M213.500000,669.500000 
	C208.705551,670.128479 204.816422,667.749878 201.044647,665.427490 
	C198.800690,664.045776 197.149414,663.936829 194.968384,665.454590 
	C190.659164,668.453125 185.869324,670.109619 180.500000,669.500000 
"/>
<path fill="none" opacity="1.000000" stroke="#000000" stroke-linecap="round" stroke-linejoin="round" stroke-width="5.000000"
	d="
M345.500000,739.500000 
	C341.294250,743.230469 340.355286,748.646301 338.612061,753.539917 
	C337.162140,757.610168 335.501251,761.379456 332.500000,764.500000 
"/>
<path fill="none" opacity="1.000000" stroke="#000000" stroke-linecap="round" stroke-linejoin="round" stroke-width="6.000000"
	d="
M346.000000,738.000000 
	C348.166687,742.666687 350.910797,747.165833 352.327271,752.050110 
	C353.583893,756.383362 355.856201,759.978638 358.000000,763.750000 
"/>
<path fill="none" opacity="1.000000" stroke="#000000" stroke-linecap="round" stroke-linejoin="round" stroke-width="6.000000"
	d="
M280.500000,575.500000 
	C275.419952,574.875610 271.075775,576.913330 267.038361,579.558533 
	C264.824036,581.009277 263.172485,581.016846 260.962463,579.556824 
	C256.930756,576.893372 252.620682,574.772644 247.500000,576.000000 
"/>
<path fill="none" opacity="1.000000" stroke="#000000" stroke-linecap="round" stroke-linejoin="round" stroke-width="5.000000"
	d="
M398.500000,670.000000 
	C393.036316,670.161377 388.548492,667.492676 384.066650,664.706238 
	C379.147675,667.641113 374.353912,670.463806 368.500000,670.000000 
"/>
<path fill="none" opacity="1.000000" stroke="#000000" stroke-linecap="round" stroke-linejoin="round" stroke-width="8.000000"
	d="
M564.500000,646.500000 
	C563.598389,648.822937 561.797424,650.482910 559.959351,651.949036 
	C557.428406,653.968018 555.181702,656.018188 555.005981,659.500305 
	C554.926392,661.076843 553.740540,660.314453 553.000000,660.500000 
"/>
<path fill="none" opacity="1.000000" stroke="#000000" stroke-linecap="round" stroke-linejoin="round" stroke-width="6.000000"
	d="
M264.000000,664.000000 
	C259.124603,666.654236 254.458466,669.898132 248.500000,669.500000 
"/>
<path fill="none" opacity="1.000000" stroke="#000000" stroke-linecap="round" stroke-linejoin="round" stroke-width="5.000000"
	d="
M634.000000,664.500000 
	C638.499146,668.214539 643.630798,670.146484 649.500000,670.000000 
"/>
<path fill="none" opacity="1.000000" stroke="#000000" stroke-linecap="round" stroke-linejoin="round" stroke-width="6.000000"
	d="
M213.500000,575.500000 
	C208.835953,575.279053 204.754257,577.034241 201.035904,579.553040 
	C198.839432,581.040833 197.160553,581.040894 194.964081,579.553040 
	C191.245728,577.034302 187.164047,575.279053 182.500000,575.500000 
"/>
<path fill="none" opacity="1.000000" stroke="#000000" stroke-linecap="round" stroke-linejoin="round" stroke-width="6.000000"
	d="
M382.500000,611.500000 
	C378.000946,609.659973 373.264435,609.482239 368.500000,609.500000 
"/>
<path fill="none" opacity="1.000000" stroke="#000000" stroke-linecap="round" stroke-linejoin="round" stroke-width="6.000000"
	d="
M518.500000,576.500000 
	C514.048096,574.330200 509.280945,574.366638 504.500000,574.500000 
"/>
<path fill="none" opacity="1.000000" stroke="#000000" stroke-linecap="round" stroke-linejoin="round" stroke-width="6.000000"
	d="
M433.500000,665.000000 
	C437.567871,667.833374 442.023102,669.620972 447.000000,670.000000 
"/>
<path fill="none" opacity="1.000000" stroke="#000000" stroke-linecap="round" stroke-linejoin="round" stroke-width="6.000000"
	d="
M339.000000,756.000000 
	C343.528015,756.589905 348.059418,757.271179 352.500000,755.500000 
"/>
<path fill="none" opacity="1.000000" stroke="#000000" stroke-linecap="round" stroke-linejoin="round" stroke-width="7.000000"
	d="
M534.500000,664.500000 
	C529.950256,665.675659 525.455811,665.359863 521.000000,664.000000 
"/>
<path fill="none" opacity="1.000000" stroke="#000000" stroke-linecap="round" stroke-linejoin="round" stroke-width="5.000000"
	d="
M309.000000,754.000000 
	C311.391937,758.335754 312.657501,763.644287 318.500000,765.000000 
"/>
<path fill="none" opacity="1.000000" stroke="#000000" stroke-linecap="round" stroke-linejoin="round" stroke-width="6.000000"
	d="
M447.000000,750.500000 
	C451.500000,750.500000 456.000000,750.500000 460.500000,750.500000 
"/>
<path fill="none" opacity="1.000000" stroke="#000000" stroke-linecap="round" stroke-linejoin="round" stroke-width="6.000000"
	d="
M631.500000,576.000000 
	C627.618896,574.548584 623.587463,574.300354 619.500000,574.500000 
"/>
<path fill="none" opacity="1.000000" stroke="#000000" stroke-linecap="round" stroke-linejoin="round" stroke-width="6.000000"
	d="
M540.000000,735.500000 
	C539.918457,737.262451 539.842590,738.675232 542.502747,738.569031 
	C548.160400,738.343079 553.833313,738.500000 559.500000,738.500000 
"/>
<path fill="none" opacity="1.000000" stroke="#000000" stroke-linecap="round" stroke-linejoin="round" stroke-width="6.000000"
	d="
M428.500000,736.500000 
	C427.920715,738.194580 426.716583,738.573120 424.999237,738.539673 
	C419.501312,738.432678 414.000000,738.500000 408.500000,738.500000 
"/>
<path fill="none" opacity="1.000000" stroke="#000000" stroke-linecap="round" stroke-linejoin="round" stroke-width="5.000000"
	d="
M762.500000,603.500000 
	C758.326416,603.760925 754.625610,605.177490 751.500000,608.000000 
"/>
<path fill="none" opacity="1.000000" stroke="#000000" stroke-linecap="round" stroke-linejoin="round" stroke-width="5.000000"
	d="
M430.500000,666.000000 
	C427.568939,668.826782 423.980865,669.928894 420.000000,670.000000 
"/>
<path fill="none" opacity="1.000000" stroke="#000000" stroke-linecap="round" stroke-linejoin="round" stroke-width="6.000000"
	d="
M378.000000,751.500000 
	C382.166656,751.500000 386.333344,751.500000 390.500000,751.500000 
"/>
<path fill="none" opacity="1.000000" stroke="#000000" stroke-linecap="round" stroke-linejoin="round" stroke-width="6.000000"
	d="
M804.500000,603.500000 
	C800.020691,604.287598 795.713440,605.450562 792.500000,609.000000 
"/>
<path fill="none" opacity="1.000000" stroke="#000000" stroke-linecap="round" stroke-linejoin="round" stroke-width="5.000000"
	d="
M845.499939,603.499939 
	C845.333313,603.666626 845.196045,603.894226 844.995667,603.991089 
	C838.415283,607.172058 831.947815,605.700867 825.500000,603.500000 
"/>
<path fill="none" opacity="1.000000" stroke="#000000" stroke-linecap="round" stroke-linejoin="round" stroke-width="6.000000"
	d="
M585.000000,737.500000 
	C576.125183,741.748779 572.415955,750.476501 576.499939,757.500061 
	C579.686157,762.979370 588.597534,765.600403 593.500000,762.500000 
	C599.299316,758.832520 601.268372,749.743591 597.478333,743.513184 
	C594.776550,739.071655 590.648621,737.202759 585.500000,737.500000 
"/>
<path fill="none" opacity="1.000000" stroke="#000000" stroke-linecap="round" stroke-linejoin="round" stroke-width="15.000000"
	d="
M687.500000,604.000000 
	C673.223389,607.369324 666.699646,617.485657 664.556213,631.008911 
	C662.282410,645.354919 669.511841,659.977966 681.993713,667.510437 
	C693.696228,674.572754 710.887878,670.845215 718.509460,659.006104 
	C728.396851,643.647400 724.798523,616.272522 706.036133,606.927490 
	C700.199585,604.020508 694.174500,603.953003 688.000000,604.000000 
"/>
</svg>